# xmcd
# 
# Track frame offsets:
#     150
#     22672
#     37397
#     54487
#     78312
#     97412
#     117320
#     130887
#     150290
#     164935
# 
# Disc length: 2495
# 
# Revision: 5
# Processed by: cddbd v1.5.2PL0 Copyright (c) Steve Scherf et al.
# Submitted via: fre:ac v1.0.31
# 
DISCID=8309bd0a
DTITLE=Crystal Bernard - Don't Touch Me There
DYEAR=1999
DGENRE=Rock/Pop
TTITLE0=Hey
TTITLE1=Don't Touch Me There
TTITLE2=We Don't Live There Anymore
TTITLE3=To Dream Without You
TTITLE4=Here's Looking At You
TTITLE5=Love Never Ends
TTITLE6=Gardenia
TTITLE7=Music Box
TTITLE8=Something To Go On
TTITLE9=If You Need A Touch
EXTD=
EXTT0=
EXTT1=
EXTT2=
EXTT3=
EXTT4=
EXTT5=
EXTT6=
EXTT7=
EXTT8=
EXTT9=
PLAYORDER=
